<?xml version="1.0" standalone="no"?>
<!DOCTYPE svg PUBLIC "-//W3C//DTD SVG 20010904//EN"
 "http://www.w3.org/TR/2001/REC-SVG-20010904/DTD/svg10.dtd">
<svg version="1.0" xmlns="http://www.w3.org/2000/svg"
 width="180.000000pt" height="180.000000pt" viewBox="0 0 180.000000 180.000000"
 preserveAspectRatio="xMidYMid meet">
<metadata>
Created by potrace 1.14, written by Peter Selinger 2001-2017
</metadata>
<g transform="translate(0.000000,180.000000) scale(0.100000,-0.100000)"
fill="#000000" stroke="none">
<path d="M0 900 l0 -900 900 0 900 0 0 900 0 900 -900 0 -900 0 0 -900z m310
527 c0 -6 18 -156 40 -332 21 -176 42 -348 46 -383 4 -34 8 -61 10 -59 5 5 23
114 69 407 20 129 39 241 41 248 2 8 31 12 99 12 68 0 97 -4 99 -12 2 -7 26
-156 52 -332 29 -189 51 -311 55 -300 4 11 15 73 24 139 8 66 31 232 50 369
19 137 35 251 35 253 0 1 34 3 75 3 90 0 85 21 50 -208 -28 -180 -60 -392
-103 -677 l-27 -180 -102 -3 c-90 -2 -102 -1 -107 15 -3 10 -26 161 -52 336
-27 174 -50 317 -53 317 -4 0 -28 -143 -54 -318 -27 -174 -51 -325 -54 -334
-4 -16 -18 -18 -109 -18 -57 0 -104 2 -104 5 0 2 -9 66 -20 142 -10 76 -42
302 -70 503 -27 201 -52 377 -55 393 l-4 27 84 0 c61 0 85 -3 85 -13z m1312
-279 c-1 -161 -5 -321 -8 -355 l-6 -63 -74 0 -74 0 0 198 c0 108 -3 268 -7
355 l-6 157 89 0 89 0 -3 -292z m1 -608 c48 -38 44 -130 -7 -165 -25 -18 -105
-20 -141 -3 -29 13 -55 55 -55 88 0 28 26 77 47 89 33 19 128 13 156 -9z"/>
</g>
</svg>
